# xmcd
#
# Track frame offsets:
#	150
#	25824
#	45800
#	97411
#	118327
#	145265
#	177553
#
# Disc length: 2825 seconds
#
# Revision: 0
# Processed by: cddbd v1.4PL0 Copyright (c) Steve Scherf et al.
# Submitted via: dBpowerAMP V4.0
#
DISCID=610b0707
DTITLE=Shades, The - Dark Side Of Fun
DYEAR=2003
DGENRE=Blues
TTITLE0=Footprints
TTITLE1=When I Think About Love
TTITLE2=Take It To The Limit
TTITLE3=If Im Wrong
TTITLE4=You Cant See
TTITLE5=Stop Doing The Devils Work
TTITLE6=Blackout
EXTD=
EXTT0=
EXTT1=
EXTT2=
EXTT3=
EXTT4=
EXTT5=
EXTT6=
PLAYORDER=
